<?xml version="1.0" encoding="UTF-8"?>
<svg xmlns="http://www.w3.org/2000/svg" viewBox="0 0 1200 760" role="img" aria-labelledby="title desc">
  <title id="title">PASSGUARD-X GUI preview</title>
  <desc id="desc">A screenshot-style preview of the PASSGUARD-X red themed graphical interface.</desc>
  <defs>
    <linearGradient id="window" x1="0" y1="0" x2="1200" y2="760" gradientUnits="userSpaceOnUse">
      <stop offset="0" stop-color="#0b0b0b"/>
      <stop offset="1" stop-color="#170303"/>
    </linearGradient>
    <linearGradient id="button" x1="0" y1="0" x2="0" y2="52" gradientUnits="userSpaceOnUse">
      <stop offset="0" stop-color="#b40000"/>
      <stop offset="1" stop-color="#680000"/>
    </linearGradient>
  </defs>
  <rect width="1200" height="760" rx="24" fill="#050505"/>
  <rect x="24" y="24" width="1152" height="712" rx="16" fill="url(#window)" stroke="#3a1111" stroke-width="2"/>
  <rect x="24" y="24" width="1152" height="54" rx="16" fill="#101010"/>
  <circle cx="58" cy="51" r="8" fill="#ff4d4d"/>
  <circle cx="88" cy="51" r="8" fill="#ff9f43"/>
  <circle cx="118" cy="51" r="8" fill="#00ff6a"/>
  <text x="600" y="59" text-anchor="middle" font-family="Arial, sans-serif" font-size="24" font-weight="700" fill="#ff3b3b">PASSGUARD-X</text>

  <text x="62" y="130" font-family="Arial, sans-serif" font-size="24" font-weight="700" fill="#ff3b3b">Hash input (single or one per line):</text>
  <rect x="62" y="152" width="1076" height="148" rx="8" fill="#121212" stroke="#5f1717" stroke-width="2"/>
  <text x="88" y="198" font-family="ui-monospace, SFMono-Regular, Menlo, monospace" font-size="24" fill="#e6e6e6">5f4dcc3b5aa765d61d8327deb882cf99</text>
  <text x="88" y="238" font-family="ui-monospace, SFMono-Regular, Menlo, monospace" font-size="24" fill="#767676">8846f7eaee8fb117ad06bdd830b7586c</text>

  <rect x="62" y="326" width="180" height="46" rx="6" fill="url(#button)" stroke="#ff3b3b"/>
  <text x="152" y="357" text-anchor="middle" font-family="Arial, sans-serif" font-size="18" fill="#f4f4f4">Load hash file</text>
  <text x="270" y="357" font-family="Arial, sans-serif" font-size="18" fill="#ff3b3b">No file selected</text>

  <text x="62" y="430" font-family="Arial, sans-serif" font-size="21" fill="#ff3b3b">Algorithm:</text>
  <rect x="174" y="398" width="160" height="46" rx="6" fill="#121212" stroke="#5f1717"/>
  <text x="204" y="428" font-family="Arial, sans-serif" font-size="18" fill="#e6e6e6">auto</text>
  <path d="M302 416 314 416 308 426Z" fill="#ff3b3b"/>

  <rect x="390" y="406" width="22" height="22" rx="3" fill="#0b0b0b" stroke="#ff3b3b"/>
  <path d="m395 417 7 7 14-17" fill="none" stroke="#00ff6a" stroke-width="4" stroke-linecap="round" stroke-linejoin="round"/>
  <text x="424" y="425" font-family="Arial, sans-serif" font-size="19" fill="#e6e6e6">Use built-in wordlists</text>

  <rect x="665" y="406" width="22" height="22" rx="3" fill="#0b0b0b" stroke="#ff3b3b"/>
  <path d="m670 417 7 7 14-17" fill="none" stroke="#00ff6a" stroke-width="4" stroke-linecap="round" stroke-linejoin="round"/>
  <text x="699" y="425" font-family="Arial, sans-serif" font-size="19" fill="#e6e6e6">Apply candidate transformation rules</text>

  <text x="62" y="500" font-family="Arial, sans-serif" font-size="21" fill="#ff3b3b">Additional wordlists:</text>
  <text x="290" y="500" font-family="Arial, sans-serif" font-size="19" fill="#ff3b3b">(none selected)</text>

  <rect x="62" y="528" width="190" height="46" rx="6" fill="url(#button)" stroke="#ff3b3b"/>
  <text x="157" y="558" text-anchor="middle" font-family="Arial, sans-serif" font-size="18" fill="#f4f4f4">Add wordlist file</text>
  <rect x="270" y="528" width="170" height="46" rx="6" fill="url(#button)" stroke="#ff3b3b"/>
  <text x="355" y="558" text-anchor="middle" font-family="Arial, sans-serif" font-size="18" fill="#f4f4f4">Clear wordlists</text>

  <rect x="62" y="606" width="210" height="52" rx="6" fill="url(#button)" stroke="#ff3b3b"/>
  <text x="167" y="640" text-anchor="middle" font-family="Arial, sans-serif" font-size="19" font-weight="700" fill="#ffffff">Crack Passwords</text>
  <rect x="294" y="606" width="150" height="52" rx="6" fill="url(#button)" stroke="#ff3b3b"/>
  <text x="369" y="640" text-anchor="middle" font-family="Arial, sans-serif" font-size="19" fill="#ffffff">Copy result</text>
  <text x="476" y="640" font-family="Arial, sans-serif" font-size="19" fill="#ff3b3b">Ready.</text>

  <rect x="62" y="676" width="1076" height="36" rx="6" fill="#000000" stroke="#193d24"/>
  <text x="88" y="701" font-family="ui-monospace, SFMono-Regular, Menlo, monospace" font-size="18" fill="#00ff6a">Loaded 53 base words, 410 candidate variants.</text>
</svg>
